REM DIRINDEX 1\2\6,1\2\7,1\2\8,1\3\9,1\3\10,1\3\11,1\4\12,1\4\13,1\4\14,1\5\15,1\5\16,1\5\17,1\5\18
REM DIRNAME cjc019,folder01,folder02,folder03,folder04,folder05,folder06,folder07,folder08,folder09,folder10,folder11,folder12,folder13,folder14,folder15,folder16,folder17
TITLE ""
FILE "2Q_j_1681-1694.mp3" MP3
  TRACK 01 AUDIO
    TITLE "6:cjc019_1506"
    INDEX 01 00:00:00
  TRACK 02 AUDIO
    TITLE "0:"
    INDEX 01 00:01:44
  TRACK 03 AUDIO
    TITLE "7:cjc019_1507"
    INDEX 01 00:02:30
  TRACK 04 AUDIO
    TITLE "0:"
    INDEX 01 00:05:03
  TRACK 05 AUDIO
    TITLE "8:cjc019_1508"
    INDEX 01 00:05:61
  TRACK 06 AUDIO
    TITLE "0:"
    INDEX 01 00:09:08
  TRACK 07 AUDIO
    TITLE "6:cjc019_1509"
    INDEX 01 00:09:61
  TRACK 08 AUDIO
    TITLE "0:"
    INDEX 01 00:11:64
  TRACK 09 AUDIO
    TITLE "7:cjc019_1510"
    INDEX 01 00:12:44
  TRACK 10 AUDIO
    TITLE "0:"
    INDEX 01 00:13:53
  TRACK 11 AUDIO
    TITLE "8:cjc019_1511"
    INDEX 01 00:14:31
  TRACK 12 AUDIO
    TITLE "0:"
    INDEX 01 00:17:16
  TRACK 13 AUDIO
    TITLE "6:cjc019_1512"
    INDEX 01 00:17:74
  TRACK 14 AUDIO
    TITLE "0:"
    INDEX 01 00:19:60
  TRACK 15 AUDIO
    TITLE "7:cjc019_1513"
    INDEX 01 00:20:41
  TRACK 16 AUDIO
    TITLE "0:"
    INDEX 01 00:23:53
  TRACK 17 AUDIO
    TITLE "8:cjc019_1514"
    INDEX 01 00:24:33
  TRACK 18 AUDIO
    TITLE "0:"
    INDEX 01 00:27:36
  TRACK 19 AUDIO
    TITLE "6:cjc019_1515"
    INDEX 01 00:28:13
  TRACK 20 AUDIO
    TITLE "0:"
    INDEX 01 00:29:56
  TRACK 21 AUDIO
    TITLE "7:cjc019_1516"
    INDEX 01 00:30:38
  TRACK 22 AUDIO
    TITLE "0:"
    INDEX 01 00:31:37
  TRACK 23 AUDIO
    TITLE "8:cjc019_1517"
    INDEX 01 00:32:11
  TRACK 24 AUDIO
    TITLE "0:"
    INDEX 01 00:35:72
  TRACK 25 AUDIO
    TITLE "6:cjc019_1518"
    INDEX 01 00:36:54
  TRACK 26 AUDIO
    TITLE "0:"
    INDEX 01 00:38:53
  TRACK 27 AUDIO
    TITLE "7:cjc019_1519"
    INDEX 01 00:39:27
  TRACK 28 AUDIO
    TITLE "0:"
    INDEX 01 00:41:02
  TRACK 29 AUDIO
    TITLE "8:cjc019_1520"
    INDEX 01 00:41:53
  TRACK 30 AUDIO
    TITLE "0:"
    INDEX 01 00:44:60
  TRACK 31 AUDIO
    TITLE "6:cjc019_1521"
    INDEX 01 00:45:39
  TRACK 32 AUDIO
    TITLE "0:"
    INDEX 01 00:47:23
  TRACK 33 AUDIO
    TITLE "7:cjc019_1522"
    INDEX 01 00:48:04
  TRACK 34 AUDIO
    TITLE "0:"
    INDEX 01 00:49:47
  TRACK 35 AUDIO
    TITLE "8:cjc019_1523"
    INDEX 01 00:50:17
  TRACK 36 AUDIO
    TITLE "0:"
    INDEX 01 00:53:51
  TRACK 37 AUDIO
    TITLE "6:cjc019_1524"
    INDEX 01 00:54:27
  TRACK 38 AUDIO
    TITLE "0:"
    INDEX 01 00:55:73
  TRACK 39 AUDIO
    TITLE "7:cjc019_1525"
    INDEX 01 00:56:57
  TRACK 40 AUDIO
    TITLE "0:"
    INDEX 01 00:58:26
  TRACK 41 AUDIO
    TITLE "8:cjc019_1526"
    INDEX 01 00:59:04
  TRACK 42 AUDIO
    TITLE "0:"
    INDEX 01 01:02:20
  TRACK 43 AUDIO
    TITLE "6:cjc019_1527"
    INDEX 01 01:02:73
  TRACK 44 AUDIO
    TITLE "0:"
    INDEX 01 01:04:13
  TRACK 45 AUDIO
    TITLE "7:cjc019_1528"
    INDEX 01 01:05:05
  TRACK 46 AUDIO
    TITLE "0:"
    INDEX 01 01:09:18
  TRACK 47 AUDIO
    TITLE "8:cjc019_1529"
    INDEX 01 01:09:65
  TRACK 48 AUDIO
    TITLE "0:"
    INDEX 01 01:13:40
  TRACK 49 AUDIO
    TITLE "6:cjc019_1530"
    INDEX 01 01:14:21
  TRACK 50 AUDIO
    TITLE "0:"
    INDEX 01 01:16:30
  TRACK 51 AUDIO
    TITLE "7:cjc019_1531"
    INDEX 01 01:17:06
  TRACK 52 AUDIO
    TITLE "0:"
    INDEX 01 01:20:04
  TRACK 53 AUDIO
    TITLE "8:cjc019_1532"
    INDEX 01 01:20:53
  TRACK 54 AUDIO
    TITLE "0:"
    INDEX 01 01:25:45
  TRACK 55 AUDIO
    TITLE "6:cjc019_1533"
    INDEX 01 01:26:23
  TRACK 56 AUDIO
    TITLE "0:"
    INDEX 01 01:27:65
  TRACK 57 AUDIO
    TITLE "7:cjc019_1534"
    INDEX 01 01:28:41
  TRACK 58 AUDIO
    TITLE "0:"
    INDEX 01 01:30:13
  TRACK 59 AUDIO
    TITLE "8:cjc019_1535"
    INDEX 01 01:30:62
  TRACK 60 AUDIO
    TITLE "0:"
    INDEX 01 01:35:61
  TRACK 61 AUDIO
    TITLE "6:cjc019_1536"
    INDEX 01 01:36:41
  TRACK 62 AUDIO
    TITLE "0:"
    INDEX 01 01:38:51
  TRACK 63 AUDIO
    TITLE "7:cjc019_1537"
    INDEX 01 01:39:33
  TRACK 64 AUDIO
    TITLE "0:"
    INDEX 01 01:44:24
  TRACK 65 AUDIO
    TITLE "8:cjc019_1538"
    INDEX 01 01:45:08
  TRACK 66 AUDIO
    TITLE "0:"
    INDEX 01 01:49:18
  TRACK 67 AUDIO
    TITLE "6:cjc019_1539"
    INDEX 01 01:50:04
  TRACK 68 AUDIO
    TITLE "0:"
    INDEX 01 01:51:34
  TRACK 69 AUDIO
    TITLE "7:cjc019_1540"
    INDEX 01 01:52:14
  TRACK 70 AUDIO
    TITLE "0:"
    INDEX 01 01:56:14
  TRACK 71 AUDIO
    TITLE "8:cjc019_1541"
    INDEX 01 01:57:00
  TRACK 72 AUDIO
    TITLE "0:"
    INDEX 01 02:00:16
  TRACK 73 AUDIO
    TITLE "6:cjc019_1542"
    INDEX 01 02:00:71
  TRACK 74 AUDIO
    TITLE "0:"
    INDEX 01 02:02:48
  TRACK 75 AUDIO
    TITLE "7:cjc019_1543"
    INDEX 01 02:03:26
  TRACK 76 AUDIO
    TITLE "0:"
    INDEX 01 02:05:17
  TRACK 77 AUDIO
    TITLE "8:cjc019_1544"
    INDEX 01 02:05:72
  TRACK 78 AUDIO
    TITLE "0:"
    INDEX 01 02:08:56
  TRACK 79 AUDIO
    TITLE "6:cjc019_1545"
    INDEX 01 02:09:34
  TRACK 80 AUDIO
    TITLE "0:"
    INDEX 01 02:11:04
  TRACK 81 AUDIO
    TITLE "7:cjc019_1546"
    INDEX 01 02:11:63
  TRACK 82 AUDIO
    TITLE "0:"
    INDEX 01 02:14:00
  TRACK 83 AUDIO
    TITLE "8:cjc019_1547"
    INDEX 01 02:14:51
  TRACK 84 AUDIO
    TITLE "0:"
    INDEX 01 02:17:18
